<svg xmlns="http://www.w3.org/2000/svg" viewBox="0 0 815 360" width="815" height="360"><defs>
<linearGradient id="aurora" x1="0.12" y1="1" x2="0.9" y2="0.04"><stop offset="0" stop-color="#0A6B3C"/><stop offset="0.4" stop-color="#16B45A"/><stop offset="0.72" stop-color="#22C96C"/><stop offset="1" stop-color="#5BE39A"/></linearGradient>
<radialGradient id="gloss" cx="0.34" cy="0.24" r="0.5"><stop offset="0" stop-color="#FFFFFF" stop-opacity="0.30"/><stop offset="1" stop-color="#FFFFFF" stop-opacity="0"/></radialGradient>
<filter id="glow" x="-60%" y="-60%" width="220%" height="220%"><feGaussianBlur stdDeviation="3.4"/></filter>
</defs><rect width="815" height="360" fill="#F6FAF6"/><g transform="translate(64,72) scale(1.05)"><path d="M 100 20 C 150 20 176 34 178 56 C 180 92 176 118 160 140 C 146 162 124 178 100 186 C 76 178 54 162 40 140 C 24 118 20 92 22 56 C 24 34 50 20 100 20 Z" fill="url(#aurora)"/><path d="M 100 20 C 150 20 176 34 178 56 C 180 92 176 118 160 140 C 146 162 124 178 100 186 C 76 178 54 162 40 140 C 24 118 20 92 22 56 C 24 34 50 20 100 20 Z" fill="url(#gloss)"/><path d="M 46 98 C 86 74, 128 80, 160 54" fill="none" stroke="#F6FAF6" stroke-width="12.5" stroke-linecap="round" opacity="0.55" filter="url(#glow)"/><path d="M 46 98 C 86 74, 128 80, 160 54" fill="none" stroke="#F6FAF6" stroke-width="11.5" stroke-linecap="round"/><path d="M 56 122 C 90 106, 124 110, 150 90" fill="none" stroke="#F6FAF6" stroke-width="5" stroke-linecap="round" opacity="0.42"/><circle cx="160" cy="54" r="11.5" fill="none" stroke="#F6FAF6" stroke-width="2.4" opacity="0.38"/><circle cx="160" cy="54" r="7" fill="#F6FAF6"/></g><text x="336.0" y="200" font-family="Outfit" font-weight="700" font-size="150" fill="#0C1813" letter-spacing="-3">Dejen</text><text x="336.0" y="255" font-family="Noto Sans Ethiopic" font-weight="700" font-size="46" fill="#16B45A">ደጅን</text><circle cx="453.264" cy="242" r="3.2" fill="#5E7A6C"/><text x="479.264" y="255" font-family="Geist Mono" font-size="24" letter-spacing="4.2" fill="#5E7A6C">MOVE PROTECTED</text></svg>